<svg xmlns="http://www.w3.org/2000/svg" width="20" height="20" viewBox="0 0 48 48" fill="currentColor">
  <path d="M33.665 24.557c-.043-4.568 3.727-6.753 3.894-6.856-2.126-3.108-5.436-3.53-6.597-3.576-2.809-.285-5.478 1.651-6.901 1.651-1.424 0-3.63-1.608-5.976-1.563-3.073.046-5.906 1.787-7.471 4.541-3.205 5.559-.816 13.793 2.303 18.309 1.527 2.205 3.342 4.677 5.74 4.595 2.298-.092 3.165-1.48 5.94-1.48s3.56 1.48 6.003 1.436c2.472-.046 4.033-2.252 5.543-4.468 1.744-2.544 2.469-5.006 2.51-5.127-.055-.018-4.82-1.852-4.989-7.462zM28.98 10.12c1.232-1.493 2.057-3.562 1.832-5.62-1.774.071-3.921 1.186-5.192 2.679-1.142 1.315-2.14 3.439-1.872 5.469 1.984.154 3.999-1.008 5.232-2.528z"/>
</svg>
