<svg xmlns="http://www.w3.org/2000/svg" width="20" height="20" viewBox="0 0 48 48">
  <path fill="#FFC107" d="M43.611 20.083H42V20H24v8h11.303C33.59 32.328 29.164 36 24 36c-6.627 0-12-5.373-12-12s5.373-12 12-12c3.059 0 5.842 1.156 7.961 3.039l5.657-5.657C34.869 6.053 29.706 4 24 4 12.955 4 4 12.955 4 24s8.955 20 20 20 20-8.955 20-20c0-1.341-.138-2.651-.389-3.917z"/>
  <path fill="#FF3D00" d="M6.305 14.691l6.571 4.819C14.524 16.094 18.877 12 24 12c3.059 0 5.842 1.156 7.961 3.039l5.657-5.657C34.869 6.053 29.706 4 24 4 16.318 4 9.575 8.337 6.305 14.691z"/>
  <path fill="#4CAF50" d="M24 44c5.083 0 9.697-1.942 13.194-5.107l-6.085-4.987C29.163 36.001 26.732 37 24 37c-5.138 0-9.477-3.657-10.89-8.575l-6.513 5.022C9.81 39.559 16.357 44 24 44z"/>
  <path fill="#1976D2" d="M43.611 20.083H42V20H24v8h11.303C34.653 31.294 29.987 35 24 35c-5.138 0-9.477-3.657-10.89-8.575l-6.513 5.022C9.81 39.559 16.357 44 24 44c8.822 0 18-6.409 18-20 0-1.341-.138-2.651-.389-3.917z"/>
</svg>
